<?xml version="1.0" encoding="UTF-8" standalone="no"?>
<svg xmlns="http://www.w3.org/2000/svg" version="1.2" baseProfile="tiny" viewBox="0.00 0.00 609.00 609.00">
<path fill="#000000" d="
  M 173.50 224.00
  L 436.45 224.00
  A 0.26 0.26 0.0 0 0 436.67 223.61
  Q 400.36 159.82 361.51 92.12
  Q 356.01 82.53 355.42 78.99
  C 350.66 50.23 387.88 37.22 402.29 62.55
  Q 449.05 144.73 494.34 223.65
  Q 494.48 223.90 494.76 223.90
  Q 517.75 224.17 544.15 223.94
  Q 556.73 223.83 562.73 225.14
  C 588.18 230.68 606.16 252.92 604.91 279.12
  Q 604.64 284.69 600.87 298.39
  Q 571.88 403.81 542.90 509.22
  C 537.36 529.38 521.72 543.96 501.45 547.96
  Q 495.85 549.07 484.14 549.06
  Q 303.70 548.95 118.75 549.02
  C 99.16 549.03 81.27 538.24 71.78 521.19
  Q 68.85 515.92 66.54 507.48
  Q 37.29 400.38 8.51 296.67
  Q 5.74 286.68 5.23 281.01
  C 2.90 254.94 20.26 231.79 45.61 225.49
  Q 52.35 223.82 64.25 223.92
  Q 89.66 224.14 115.22 223.93
  Q 115.49 223.92 115.63 223.69
  Q 160.82 144.75 206.17 65.18
  Q 210.35 57.84 213.41 55.23
  C 228.59 42.27 250.83 50.52 254.58 69.66
  C 256.03 77.07 253.77 82.89 250.02 89.43
  Q 210.64 158.09 173.29 223.64
  Q 173.09 224.00 173.50 224.00
  Z
  M 57.29 274.49
  L 55.97 275.09
  Q 55.44 275.32 55.59 275.88
  L 115.42 496.48
  A 3.42 3.42 0.0 0 0 118.72 499.00
  L 491.40 499.00
  A 3.27 3.27 0.0 0 0 494.55 496.60
  L 554.64 278.04
  A 3.20 3.19 7.7 0 0 551.55 274.00
  L 59.57 274.00
  Q 58.38 274.00 57.29 274.49
  Z"
/>
</svg>
