<?xml version="1.0" encoding="UTF-8" standalone="no"?>
<svg xmlns="http://www.w3.org/2000/svg" version="1.2" baseProfile="tiny" viewBox="0.00 0.00 607.00 607.00">
<path fill="#000000" d="
  M 238.29 0.00
  L 367.97 0.00
  C 416.22 3.07 452.22 39.83 452.92 88.28
  Q 453.14 103.72 452.95 119.16
  A 0.80 0.80 0.0 0 0 453.75 119.97
  Q 465.49 120.07 477.98 119.97
  Q 490.44 119.87 498.06 121.14
  C 539.59 128.07 570.31 161.14 572.66 203.36
  Q 573.02 209.84 573.66 216.21
  Q 587.80 357.21 602.18 498.33
  Q 603.18 508.08 602.71 514.79
  C 599.26 563.59 562.28 600.01 513.02 600.00
  Q 305.24 599.95 98.45 600.03
  Q 86.11 600.04 79.06 599.00
  C 37.63 592.89 7.42 560.69 3.40 518.98
  Q 2.72 511.92 3.69 502.31
  Q 18.77 352.34 32.16 214.16
  Q 32.71 208.55 33.19 201.97
  Q 35.84 165.66 62.36 142.34
  C 78.85 127.84 99.93 120.21 122.00 120.08
  Q 136.90 119.99 152.14 120.00
  A 0.83 0.82 -89.3 0 0 152.96 119.19
  Q 153.11 107.42 152.96 96.92
  Q 152.78 84.74 153.85 77.31
  C 160.19 33.28 193.85 2.61 238.29 0.00
  Z
  M 218.16 71.98
  C 215.03 76.27 213.12 82.86 213.07 88.21
  Q 212.92 103.99 213.03 119.25
  Q 213.04 120.00 213.79 120.00
  L 392.21 120.00
  A 0.82 0.82 0.0 0 0 393.03 119.17
  Q 392.87 107.00 393.07 94.56
  Q 393.23 85.43 391.58 79.99
  C 387.24 65.70 375.47 59.91 361.22 59.95
  Q 301.54 60.08 243.80 59.95
  Q 226.96 59.92 218.16 71.98
  Z
  M 187.44 299.74
  C 172.60 301.29 159.64 295.25 154.55 280.71
  Q 152.87 275.92 152.92 264.23
  Q 153.08 222.50 152.96 181.21
  A 1.19 1.19 0.0 0 0 151.78 180.02
  Q 137.29 179.95 122.56 180.07
  C 106.32 180.21 94.19 190.63 93.18 207.00
  Q 92.96 210.55 92.61 214.12
  Q 77.91 362.62 63.39 508.61
  Q 62.80 514.52 63.45 518.20
  C 65.16 527.82 72.71 535.28 82.02 538.35
  Q 87.16 540.05 96.56 540.04
  Q 306.31 539.98 513.23 540.01
  C 527.59 540.01 539.18 531.82 542.26 517.42
  Q 543.35 512.32 542.52 504.17
  Q 527.40 356.39 513.22 215.17
  Q 512.93 212.28 512.82 209.34
  C 512.26 195.14 504.11 183.40 489.71 180.62
  Q 485.39 179.78 475.22 179.95
  Q 464.23 180.13 453.64 179.95
  Q 453.00 179.94 453.00 180.57
  Q 453.00 223.80 453.00 269.76
  C 453.01 288.39 440.34 300.55 421.79 299.98
  C 408.98 299.58 398.43 292.86 394.49 280.33
  Q 392.94 275.41 392.95 266.85
  Q 393.01 222.53 393.00 181.23
  A 1.23 1.23 0.0 0 0 391.77 180.00
  L 213.28 180.00
  A 0.28 0.28 0.0 0 0 213.00 180.28
  Q 213.02 221.96 212.98 269.53
  C 212.97 285.83 203.40 298.06 187.44 299.74
  Z"
/>
</svg>
