<?xml version="1.0" encoding="UTF-8" standalone="no"?>
<svg xmlns="http://www.w3.org/2000/svg" version="1.2" baseProfile="tiny" viewBox="0.00 0.00 552.00 552.00">
<path fill="#000000" d="
  M 170.10 312.29
  L 177.60 347.46
  Q 177.72 348.00 178.27 348.00
  Q 320.93 347.99 463.28 348.00
  Q 469.65 348.00 474.94 352.62
  C 488.32 364.28 478.88 384.04 462.31 384.03
  Q 311.17 383.95 164.55 384.02
  Q 156.54 384.03 151.68 378.56
  Q 146.13 372.33 144.47 364.49
  Q 113.74 219.51 82.54 72.38
  A 0.43 0.43 0.0 0 0 82.12 72.04
  Q 55.29 71.92 27.79 72.03
  Q 21.87 72.06 18.43 70.69
  C 3.28 64.66 3.52 43.56 18.29 37.31
  Q 21.39 36.00 27.69 36.00
  Q 60.66 35.98 93.61 36.00
  Q 100.30 36.00 103.23 37.16
  Q 109.29 39.55 112.54 44.93
  Q 114.36 47.93 115.74 54.72
  Q 120.05 75.78 124.43 95.62
  Q 124.51 95.96 124.85 95.96
  Q 325.06 96.03 528.28 95.98
  C 537.97 95.97 546.47 104.04 546.86 113.78
  Q 546.95 116.15 545.66 121.66
  Q 525.51 207.96 504.65 297.45
  Q 502.38 307.19 493.82 310.53
  Q 489.94 312.04 482.85 312.04
  Q 326.21 311.97 170.33 312.00
  Q 170.03 312.00 170.10 312.29
  Z
  M 472.59 275.99
  A 0.32 0.32 0.0 0 0 472.90 275.74
  L 506.31 132.39
  A 0.32 0.32 0.0 0 0 506.00 132.00
  L 132.37 132.00
  A 0.32 0.32 0.0 0 0 132.05 132.39
  L 162.48 275.74
  A 0.32 0.32 0.0 0 0 162.79 275.99
  L 472.59 275.99
  Z"
/>
<path fill="#000000" d="
  M 283.02 455.99
  A 59.93 59.93 0.0 0 1 223.09 515.92
  A 59.93 59.93 0.0 0 1 163.16 455.99
  A 59.93 59.93 0.0 0 1 223.09 396.06
  A 59.93 59.93 0.0 0 1 283.02 455.99
  Z
  M 247.15 455.99
  A 24.06 24.06 0.0 0 0 223.09 431.93
  A 24.06 24.06 0.0 0 0 199.03 455.99
  A 24.06 24.06 0.0 0 0 223.09 480.05
  A 24.06 24.06 0.0 0 0 247.15 455.99
  Z"
/>
<path fill="#000000" d="
  M 463.02 455.99
  A 59.93 59.93 0.0 0 1 403.09 515.92
  A 59.93 59.93 0.0 0 1 343.16 455.99
  A 59.93 59.93 0.0 0 1 403.09 396.06
  A 59.93 59.93 0.0 0 1 463.02 455.99
  Z
  M 427.15 455.99
  A 24.06 24.06 0.0 0 0 403.09 431.93
  A 24.06 24.06 0.0 0 0 379.03 455.99
  A 24.06 24.06 0.0 0 0 403.09 480.05
  A 24.06 24.06 0.0 0 0 427.15 455.99
  Z"
/>
</svg>
